Coordinates
version=1
nRows=13
nColumns=36
inDegrees=yes

Units are S.I. units (second, meters, Newtons, ...)
If the header above contains a line with 'inDegrees', this indicates whether rotational values are in degrees (yes) or radians (no).

endheader
time	pelvis_tilt	pelvis_list	pelvis_rotation	pelvis_tx	pelvis_ty	pelvis_tz	hip_flexion_r	hip_adduction_r	hip_rotation_r	knee_angle_r	knee_angle_r_beta	ankle_angle_r	subtalar_angle_r	mtp_angle_r	hip_flexion_l	hip_adduction_l	hip_rotation_l	knee_angle_l	knee_angle_l_beta	ankle_angle_l	subtalar_angle_l	mtp_angle_l	lumbar_extension	lumbar_bending	lumbar_rotation	arm_flex_r	arm_add_r	arm_rot_r	elbow_flex_r	pro_sup_r	arm_flex_l	arm_add_l	arm_rot_l	elbow_flex_l	pro_sup_l
      6.18333330	    -17.90723604	      0.84075345	     -1.33226869	      0.25845461	      0.97134511	     -0.06724900	     10.53111553	     -4.68848249	     -3.61886764	      0.15875520	      0.00277080	     11.94519162	      0.54397129	     -7.49999987	     15.13093304	     -4.58712409	      0.85687383	      8.25296819	      0.14404147	      9.81499356	     -1.92531038	     -7.49999987	     13.88950865	     -1.23920239	      1.49200857	     -6.42824485	     -9.49110312	     16.48924757	     32.16704016	     65.07740446	     -1.87280993	     -8.37159528	     25.48065274	     26.01708340	     71.65492868
      6.20000000	    -17.99606549	      0.62094944	     -1.02192755	      0.24811736	      0.97092569	     -0.06087501	     10.99135040	     -4.39470231	     -3.84914704	      0.18466957	      0.00322309	     12.23949528	      0.46641627	     -7.49999987	     16.21023021	     -4.92063319	      0.49652259	      9.17123230	      0.16006820	     10.17791956	     -1.25599467	     -7.49999987	     12.87282857	     -1.32475685	      1.42401136	     -5.93396675	     -9.39144879	     16.32583927	     32.58052741	     65.18273599	     -0.67745215	     -8.69902204	     25.40238127	     26.73461985	     71.87512801
      6.21666670	    -18.42687660	      0.40581098	     -0.74347519	      0.23678737	      0.96517810	     -0.05652041	     11.92945954	     -4.06594403	     -4.11871446	      0.23982189	      0.00418568	     12.68929720	      0.36132899	     -7.49999987	     17.88979291	     -5.33032724	     -0.12764175	     10.40901757	      0.18167163	     10.84025929	     -0.24939839	     -7.49999987	     12.13728850	     -1.44761208	      1.54177874	     -5.29711400	     -9.20884399	     16.32678270	     32.86754132	     65.56546360	      0.47330013	     -9.16177321	     25.33956936	     27.33798573	     72.43550596
      6.23333330	    -18.65391904	      0.26610416	     -0.60955115	      0.22942715	      0.97002316	     -0.06204455	     12.74439481	     -3.86232474	     -4.29300175	      0.29163492	      0.00508999	     12.96314201	      0.41915772	     -7.49999987	     19.21526870	     -5.67327076	     -0.77180650	     11.31833176	      0.19754216	     11.10078621	      0.93144092	     -7.49999987	     11.03324839	     -1.48020894	      1.77210248	     -4.26789820	     -9.01619632	     15.99250787	     32.91611624	     65.57265592	      1.80130692	     -9.41239282	     24.68067274	     27.97443986	     72.23679104
      6.25000000	    -19.40889745	     -0.03614293	     -0.36586247	      0.21843784	      0.96860788	     -0.05678880	     14.17537776	     -3.49101493	     -4.43204618	      0.41175523	      0.00718648	     12.91807244	      0.25250899	     -7.49999987	     21.32951156	     -6.20845083	     -1.52267010	     12.54744227	      0.21899418	     11.54251045	      2.40866368	     -7.49999987	     10.46219992	     -1.44323366	      2.05942029	     -3.15384646	     -8.94397711	     16.33238911	     32.72576391	     67.42048283	      3.18516094	     -9.64668320	     24.66696683	     28.14628204	     74.73394858
      6.26666670	    -20.04848842	     -0.42293109	     -0.18919848	      0.21057660	      0.96337573	     -0.06438014	     15.56436796	     -3.17170424	     -4.64476119	      0.66272506	      0.01156673	     12.91332124	      0.34119242	     -7.49999987	     23.34252414	     -6.77634428	     -2.12462442	     13.90322076	      0.24265698	     12.21002578	      3.94279885	     -7.49999987	      9.60658878	     -1.15643759	      2.24546543	     -2.10699965	     -8.91857228	     15.94118117	     32.86288954	     67.28967260	      4.28692458	     -9.53621981	     23.88749072	     28.73647355	     74.20085978
      6.28333330	    -20.92691956	     -0.75243881	     -0.19825165	      0.19943869	      0.96183214	     -0.05928078	     17.43980274	     -2.84971841	     -4.85805512	      1.23227531	      0.02150726	     13.06516637	      0.54569115	     -7.49999987	     25.74113586	     -7.42447674	     -2.99085581	     15.38215833	      0.26846931	     12.79753443	      5.38742249	     -7.49999987	      9.02267695	     -0.98100174	      2.52344910	     -1.07541842	     -8.89752008	     15.37427813	     32.61652006	     71.40162224	      5.58264801	     -9.23979492	     22.00201018	     28.98131348	     79.27430406
      6.30000000	    -21.85499320	     -1.20182591	     -0.37790496	      0.19100353	      0.95515942	     -0.06515107	     19.64451077	     -2.47166802	     -4.95817473	      2.30715328	      0.04026742	     13.32240684	      0.66519401	     -7.49999987	     28.32010560	     -8.18080882	     -3.58446220	     17.20895874	      0.30035299	     13.60560672	      6.23739443	     -7.49999987	      8.35776150	     -0.49613069	      2.95593218	     -0.31064800	     -9.23780736	     15.24992726	     33.16738424	     70.97916584	      6.66334946	     -8.98707394	     21.38055948	     30.03299547	     78.35972488
      6.31666670	    -22.87539495	     -1.46644042	     -0.66422170	      0.19053223	      0.95431240	     -0.06545722	     22.02321968	     -2.22825668	     -4.94820953	      3.60731899	      0.06295959	     13.56377323	      0.42538626	     -7.49999987	     30.87363787	     -8.89765542	     -4.72286361	     18.94300164	      0.33061775	     14.27399876	      8.00042935	     -7.49999987	      8.18765491	     -0.21142900	      3.26952931	      0.41400052	     -9.72616671	     16.28739866	     32.95112405	     71.82981821	      7.58057728	     -8.63344728	     20.80087156	     29.72838637	     78.81364758
      6.33333330	    -23.89648272	     -1.89070690	     -0.99900770	      0.17121313	      0.95804746	     -0.06602226	     24.68960313	     -1.84698626	     -5.29826182	      5.22859358	      0.09125617	     13.67581930	      0.69892316	     -7.49999987	     33.86618285	     -9.84897285	     -5.68993800	     21.29309705	      0.37163465	     15.05370684	      9.55572206	     -7.49999987	      7.21675742	      0.26752838	      3.68477909	      1.18485227	    -10.22157793	     15.87758837	     33.93062450	     70.59265406	      8.34515055	     -8.34711960	     19.45827563	     30.90610325	     76.66186413
      6.35000000	    -24.97411746	     -2.04820657	     -1.41529012	      0.17074286	      0.95599379	     -0.06632415	     27.61783536	     -1.68926529	     -5.33851637	      7.45341276	      0.13008659	     14.04728996	      0.67262718	     -7.49999987	     36.78379062	    -10.59650342	     -6.67383873	     23.53331500	      0.41073383	     15.52588970	     10.68557417	     -7.49999987	      6.50183775	      0.41921374	      4.03231063	      2.01138446	    -10.95809385	     16.66895416	     34.45766321	     75.42707602	      9.06563429	     -7.94916690	     17.22122240	     31.42245252	     83.97282042
      6.36666670	    -25.51264200	     -2.31570519	     -1.78510443	      0.17093049	      0.95443298	     -0.06548123	     29.34947823	     -1.39047086	     -5.43968983	      8.83903682	      0.15427030	     14.26309808	      0.68908409	     -7.49999987	     38.87302229	    -11.44006381	     -7.48574897	     25.55111099	      0.44595101	     15.86757699	     11.77625498	     -7.49999987	      5.40877704	      0.71610711	      4.44698532	      2.13784855	    -11.72078624	     17.13151467	     35.81037699	     75.17683381	      9.48739093	     -7.72246003	     16.33942262	     31.99476240	     83.08881579
      6.38333330	    -26.37120872	     -2.75297358	     -2.17911725	      0.15761501	      0.94058138	     -0.06026339	     32.40105587	     -0.97972259	     -5.66596815	     12.12181566	      0.21156559	     15.27858702	      0.46047700	     -7.49999987	     42.07455252	    -12.61338948	     -7.98598067	     28.86350377	      0.50376317	     17.02343079	     12.44679918	     -7.49999987	      4.06552604	      1.08992555	      4.79172014	      2.41483429	    -12.30254707	     17.20846946	     37.83350322	     74.43811367	      9.82699344	     -7.87958168	     15.79365891	     34.00086630	     81.73401153
